<svg version="1.1" id="Layer_1" xmlns="http://www.w3.org/2000/svg" xmlns:xlink="http://www.w3.org/1999/xlink" x="0px" y="0px"
	 width="100%" viewBox="0 0 512 512" enable-background="new 0 0 512 512" xml:space="preserve">
<path fill="#000000" opacity="1.000000" stroke="none" 
	d="
M1.000000,86.000000 
	C1.000000,57.684841 1.000000,29.369680 1.000003,1.056450 
	C171.666672,1.058380 342.333344,1.058380 513.000000,1.058380 
	C513.000000,29.098734 513.000000,57.080708 512.531372,85.531326 
	C428.881165,85.999962 345.699677,85.998985 262.518158,86.006340 
	C260.691742,86.006500 258.865356,86.101868 256.573120,86.089371 
	C171.071533,86.017273 86.035767,86.008636 1.000000,86.000000 
z"/>
<path fill="#000000" opacity="1.000000" stroke="none" 
	d="
M513.000000,428.000000 
	C513.000000,456.315155 513.000000,484.630280 513.000000,512.943604 
	C342.333313,512.941772 171.666656,512.941772 1.000000,512.941772 
	C1.000000,484.901459 1.000000,456.919403 1.462638,428.468658 
	C172.283524,428.000000 342.641754,428.000000 513.000000,428.000000 
z"/>
<path fill="#2F53B2" opacity="1.000000" stroke="none" 
	d="
M1.000000,270.000000 
	C1.000000,209.312439 1.000000,148.624878 1.468657,87.467964 
	C86.906265,87.015503 171.875229,87.032387 256.910248,87.510635 
	C257.039948,101.645805 257.103577,115.319618 257.098083,129.457932 
	C257.075165,143.864319 257.121338,157.806213 257.098572,172.230392 
	C257.075287,186.554123 257.120911,200.395538 257.114838,214.688171 
	C257.097748,229.092651 257.132355,243.045944 257.096375,257.460266 
	C257.025757,261.862732 257.025757,265.804169 257.025757,269.869965 
	C255.581970,269.962189 254.773758,270.059082 253.965591,270.058960 
	C169.643723,270.044037 85.321861,270.021790 1.000000,270.000000 
M204.804428,239.038147 
	C207.763245,236.991730 210.722061,234.945312 213.552811,232.987473 
	C216.795151,235.149475 219.689102,237.079193 223.684708,239.743500 
	C222.817444,236.443985 222.615433,234.418549 221.768036,232.713913 
	C220.018448,229.194397 220.830109,226.875137 224.216080,224.990417 
	C226.232285,223.868179 227.968307,222.242538 229.830292,220.843201 
	C229.831833,220.364792 229.833359,219.886383 229.834900,219.407990 
	C219.191971,222.858200 214.886276,217.746140 213.796219,208.087708 
	C212.063583,212.021347 211.841049,216.928253 209.359985,218.736832 
	C206.664703,220.701569 201.868256,219.776489 197.992310,220.155807 
	C197.838074,220.170914 197.728516,220.642395 197.314911,221.463516 
	C206.915421,224.347305 207.163803,230.892151 203.339233,238.981918 
	C203.409637,239.244080 203.480057,239.506226 203.550461,239.768372 
	C203.738846,239.553192 203.927216,239.338013 204.804428,239.038147 
M166.976929,239.268463 
	C167.097839,239.243820 167.218765,239.219177 167.339676,239.194519 
	C167.213226,239.137939 167.086761,239.081360 167.077362,238.251160 
	C164.267761,228.132263 164.272293,228.138000 172.358383,221.740295 
	C172.778763,221.407700 173.011658,220.838120 173.646271,219.927887 
	C169.217239,219.927887 165.408630,219.927887 161.405884,219.927887 
	C160.094467,216.111267 158.833038,212.440079 157.571594,208.768906 
	C155.955383,218.334946 150.824814,222.607590 140.605957,219.891403 
	C144.019318,223.148239 148.530289,225.162628 149.551498,228.309509 
	C150.558044,231.411163 148.030273,235.659760 146.861389,240.140274 
	C150.790863,237.407684 154.031128,235.154388 156.911148,233.151596 
	C160.578491,235.244995 163.817856,237.094086 166.976929,239.268463 
M91.625648,239.215103 
	C94.764259,237.120468 97.902878,235.025833 100.969330,232.979370 
	C104.345367,235.355225 107.418839,237.518143 110.492302,239.681076 
	C106.051445,231.126709 108.208565,225.120209 116.667580,221.157654 
	C116.826271,221.083313 116.799019,220.612030 116.864799,220.295746 
	C112.948318,220.035645 108.076721,221.094574 105.400642,219.142975 
	C102.760178,217.217300 102.341171,212.245544 100.947578,208.610138 
	C99.908195,218.636017 94.332024,221.734375 85.240547,220.144791 
	C85.129906,220.125443 84.933281,220.597839 84.710403,220.943741 
	C87.848778,223.330566 90.982933,225.714172 93.868118,227.908432 
	C92.824158,231.998581 91.927788,235.510468 90.687782,239.119919 
	C90.770905,239.062073 90.854019,239.004211 91.625648,239.215103 
M54.044632,239.532455 
	C54.282848,239.495712 54.521061,239.458954 54.759281,239.422195 
	C54.597218,239.187912 54.435158,238.953613 54.261780,237.937073 
	C53.844296,236.505722 53.625832,234.975403 52.972408,233.661377 
	C50.926262,229.546616 51.627285,226.545380 55.925491,224.399765 
	C57.687195,223.520340 59.133934,222.009949 61.723328,220.017670 
	C57.911163,220.017670 55.573265,219.787674 53.299110,220.070389 
	C49.693073,220.518707 47.780594,219.210190 47.071545,215.596863 
	C46.602112,213.204651 45.578850,210.921127 44.447582,207.518250 
	C43.275005,211.093689 42.308289,213.405457 41.777840,215.813324 
	C41.048561,219.123734 39.392082,220.550415 35.883804,220.080002 
	C33.462334,219.755325 30.962160,220.017639 28.497156,220.017639 
	C28.231916,220.413132 27.966677,220.808624 27.701437,221.204117 
	C37.275661,224.643387 39.233032,230.682465 33.573429,239.321381 
	C34.045238,239.352066 34.517048,239.382751 34.988861,239.413422 
	C38.198078,237.258545 41.407295,235.103668 44.439167,233.067871 
	C47.804043,235.208130 50.858669,237.151062 54.044632,239.532455 
M91.726921,147.838211 
	C100.611275,141.557327 100.608696,141.561218 109.499298,147.460602 
	C109.817131,147.671494 110.290108,147.648605 111.137474,147.830612 
	C110.346565,145.272079 109.911995,142.970886 108.940041,140.925003 
	C107.351700,137.581726 108.083290,135.390106 111.309608,133.601822 
	C113.319450,132.487808 115.036987,130.846451 117.626411,128.878937 
	C112.624947,128.470566 107.961929,129.406952 105.396317,127.508652 
	C102.848259,125.623329 102.410278,120.886200 101.046936,117.399712 
	C100.626755,117.021797 100.206566,116.643883 99.786385,116.265968 
	C100.033890,127.058533 94.456810,129.964783 85.723122,128.648254 
	C85.590042,128.628189 85.381386,129.109543 85.036194,129.601959 
	C88.023613,131.882233 91.018806,134.168442 93.714371,136.225937 
	C92.799400,140.486923 91.977455,144.314697 90.935104,148.104401 
	C90.935104,148.104401 90.768013,148.259842 90.768013,148.259842 
	C90.768013,148.259842 91.088585,148.071411 91.726921,147.838211 
M52.296661,181.374176 
	C55.077839,179.261215 57.859016,177.148239 60.640194,175.035278 
	C60.678276,174.557205 60.716362,174.079132 60.754444,173.601059 
	C50.051266,177.048096 45.808079,171.843948 44.706398,162.243622 
	C43.406315,164.985718 42.376289,167.281250 41.883110,169.686829 
	C41.150196,173.261765 39.308308,174.706467 35.639103,174.251999 
	C33.313263,173.963898 30.922722,174.198181 28.561201,174.198181 
	C28.187143,174.591385 27.813086,174.984604 27.439028,175.377808 
	C38.143307,178.858109 38.627243,185.589386 34.752899,194.015640 
	C37.988140,191.745300 41.223377,189.474945 44.470818,187.196030 
	C47.852383,189.522415 51.034851,191.711823 54.693062,194.228516 
	C53.610130,189.632935 52.712788,185.824921 52.296661,181.374176 
M201.914093,174.198456 
	C200.521133,174.198456 199.128159,174.198456 197.735199,174.198456 
	C197.313156,174.540848 196.891113,174.883255 196.469070,175.225647 
	C206.727737,178.908905 208.103546,185.336777 203.814835,193.993576 
	C207.016373,191.750992 210.217926,189.508408 213.552460,187.172653 
	C216.843338,189.463364 220.075333,191.713058 224.092072,194.509018 
	C223.120499,191.248260 222.705261,188.769852 221.659622,186.594467 
	C220.007568,183.157516 221.048325,181.073471 224.123505,179.276566 
	C226.126923,178.105896 227.867599,176.485626 229.725998,175.066788 
	C229.770340,174.584259 229.814682,174.101715 229.859024,173.619171 
	C219.125885,177.041092 214.895691,171.780243 214.089737,161.944351 
	C210.341293,166.934662 212.602005,176.223633 201.914093,174.198456 
M172.899445,175.560532 
	C172.529739,175.108582 172.052811,174.209900 171.805786,174.269180 
	C162.555847,176.489182 159.037979,171.420395 157.775162,163.384689 
	C157.753235,163.245163 157.339554,163.167221 156.897903,162.963150 
	C155.544861,166.555313 155.166382,171.387131 152.616470,173.255661 
	C150.056534,175.131561 145.332062,174.046219 141.559097,174.301483 
	C141.409241,174.311646 141.289246,174.763306 140.853012,175.564514 
	C150.491592,178.826035 151.547577,185.378494 147.541946,193.935501 
	C150.778992,191.676010 154.016052,189.416519 157.239578,187.166473 
	C160.549759,189.493011 163.594254,191.632782 167.073700,194.078262 
	C167.009583,192.771072 167.087585,192.097137 166.929840,191.483841 
	C164.453903,181.857391 164.446915,181.859192 172.899445,175.560532 
M114.539497,174.199615 
	C104.678543,176.909409 102.835678,169.665070 100.570618,162.207596 
	C99.735008,172.390381 94.639320,176.112610 85.379028,174.295105 
	C85.247124,174.269226 85.022041,174.718124 84.373360,175.530075 
	C93.541687,178.514389 94.884720,184.642471 91.054993,192.609024 
	C91.007935,192.706894 91.396141,193.014008 91.782524,193.451370 
	C94.738739,191.414520 97.709702,189.367508 100.831642,187.216476 
	C104.101303,189.459961 107.290344,191.648117 110.661545,193.961273 
	C110.777733,193.140457 110.968712,192.744492 110.846947,192.513000 
	C107.179092,185.540009 107.434265,179.757919 115.622986,176.252502 
	C116.150169,176.026825 116.480164,175.340546 116.901878,174.868515 
	C116.359901,174.646225 115.817932,174.423920 114.539497,174.199615 
M153.725189,126.509399 
	C149.644135,127.485619 145.563065,128.461838 140.599808,129.649094 
	C150.507034,133.089417 151.503738,139.643204 146.760712,148.621780 
	C153.547546,141.041412 159.787491,140.861435 166.152374,147.541931 
	C166.244141,147.638229 166.664154,147.421768 167.285446,147.257629 
	C166.200302,143.637802 165.126007,140.054123 164.027206,136.388733 
	C167.279251,133.954025 170.353561,131.652359 174.262115,128.726135 
	C169.267670,128.471634 164.564178,129.584534 162.038406,127.730583 
	C159.405396,125.797913 158.872147,121.004578 157.019089,116.481216 
	C155.807343,120.143593 154.887772,122.922935 153.725189,126.509399 
M53.626663,147.777359 
	C53.241581,145.328751 53.232944,142.738586 52.378643,140.466400 
	C51.243439,137.447067 51.739548,135.525864 54.534370,133.879547 
	C56.693222,132.607849 58.609844,130.924973 61.471561,128.804367 
	C56.420246,128.480652 51.672863,129.543091 49.186672,127.644508 
	C46.537617,125.621544 46.027412,120.797768 43.871006,115.420303 
	C43.185070,126.542015 38.322010,130.993790 28.065479,128.480087 
	C31.273474,131.564163 35.526726,133.272400 36.533367,136.125931 
	C37.576721,139.083557 35.473873,143.151062 34.507889,147.912048 
	C38.254833,145.539825 41.449955,143.516968 44.691593,141.464661 
	C47.624882,143.560318 50.324299,145.488876 53.626663,147.777359 
M223.371643,134.105438 
	C225.474670,132.559601 227.577698,131.013748 230.617447,128.779343 
	C225.726608,128.527802 221.077728,129.617386 218.525070,127.785683 
	C215.945435,125.934624 215.449753,121.186188 214.011368,117.719360 
	C213.932953,117.530388 213.580521,117.455101 212.773270,116.994888 
	C212.468811,127.022041 207.039825,130.670898 196.809128,128.731232 
	C205.395782,133.109177 209.050964,138.377518 203.326172,147.251678 
	C207.020691,145.675446 209.930893,142.339661 212.887024,142.298447 
	C216.074753,142.253998 219.305466,145.293335 223.529327,147.521088 
	C222.583359,144.238129 221.560349,141.950577 221.371292,139.596069 
	C221.241211,137.975906 222.267471,136.262863 223.371643,134.105438 
z"/>
<path fill="#F0EEEE" opacity="1.000000" stroke="none" 
	d="
M1.000000,385.000000 
	C1.000000,370.979095 1.000000,356.958221 1.460476,342.563477 
	C171.288025,342.201508 340.655121,342.213745 510.022186,342.215881 
	C511.014801,342.215912 512.007385,342.075073 513.000000,342.000000 
	C513.000000,356.020905 513.000000,370.041779 512.531372,384.532379 
	C341.708466,385.001373 171.354233,385.000702 1.000000,385.000000 
z"/>
<path fill="#D80027" opacity="1.000000" stroke="none" 
	d="
M513.000000,341.531342 
	C512.007385,342.075073 511.014801,342.215912 510.022186,342.215881 
	C340.655121,342.213745 171.288025,342.201508 1.460476,342.094818 
	C1.000000,328.312439 1.000000,314.624878 1.458555,300.363281 
	C2.583024,299.775665 3.248937,299.750244 3.914851,299.750214 
	C172.119247,299.748260 340.323639,299.747406 508.528046,299.758270 
	C510.018707,299.758362 511.509338,299.915955 513.000000,300.000000 
	C513.000000,313.687561 513.000000,327.375122 513.000000,341.531342 
z"/>
<path fill="#D80027" opacity="1.000000" stroke="none" 
	d="
M1.000000,385.468658 
	C171.354233,385.000702 341.708466,385.001373 512.531372,385.001038 
	C513.000000,398.687561 513.000000,412.375122 512.537354,426.531342 
	C341.716461,427.000000 171.358231,427.000000 1.000000,427.000000 
	C1.000000,413.312439 1.000000,399.624878 1.000000,385.468658 
z"/>
<path fill="#EFEDEE" opacity="1.000000" stroke="none" 
	d="
M513.000000,299.531342 
	C511.509338,299.915955 510.018707,299.758362 508.528046,299.758270 
	C340.323639,299.747406 172.119247,299.748260 3.914851,299.750214 
	C3.248937,299.750244 2.583024,299.775665 1.458555,299.894623 
	C1.000000,290.312439 1.000000,280.624878 1.000000,270.468658 
	C85.321861,270.021790 169.643723,270.044037 253.965591,270.058960 
	C254.773758,270.059082 255.581970,269.962189 257.025757,269.869965 
	C257.025757,265.804169 257.025757,261.862732 257.553040,257.459717 
	C343.053558,256.998779 428.026764,256.999390 513.000000,257.000000 
	C513.000000,271.020905 513.000000,285.041779 513.000000,299.531342 
z"/>
<path fill="#D80229" opacity="1.000000" stroke="none" 
	d="
M257.167542,171.748093 
	C257.121338,157.806213 257.075165,143.864319 257.554749,129.458481 
	C343.053680,128.996353 428.026825,128.998184 513.000000,129.000000 
	C513.000000,143.020889 513.000000,157.041794 512.541260,171.427094 
	C427.110809,171.777023 342.139160,171.762558 257.167542,171.748093 
z"/>
<path fill="#D80229" opacity="1.000000" stroke="none" 
	d="
M513.000000,256.531342 
	C428.026764,256.999390 343.053558,256.998779 257.623657,256.998718 
	C257.132355,243.045944 257.097748,229.092651 257.571289,214.687683 
	C341.060547,214.235657 424.041656,214.236969 507.022797,214.225174 
	C509.015198,214.224899 511.007599,214.078339 513.000000,214.000000 
	C513.000000,228.020889 513.000000,242.041794 513.000000,256.531342 
z"/>
<path fill="#F0F0F0" opacity="1.000000" stroke="none" 
	d="
M513.000000,128.531342 
	C428.026825,128.998184 343.053680,128.996353 257.623840,128.993973 
	C257.103577,115.319618 257.039948,101.645805 256.980133,87.291130 
	C256.983948,86.610260 257.038940,86.152832 257.038940,86.152832 
	C258.865356,86.101868 260.691742,86.006500 262.518158,86.006340 
	C345.699677,85.998985 428.881165,85.999962 512.531372,85.999985 
	C513.000000,100.020897 513.000000,114.041786 513.000000,128.531342 
z"/>
<path fill="#F0F0F0" opacity="1.000000" stroke="none" 
	d="
M513.000000,213.531342 
	C511.007599,214.078339 509.015198,214.224899 507.022797,214.225174 
	C424.041656,214.236969 341.060547,214.235657 257.622986,214.236481 
	C257.120911,200.395538 257.075287,186.554123 257.098572,172.230392 
	C342.139160,171.762558 427.110809,171.777023 512.541260,171.895752 
	C513.000000,185.687561 513.000000,199.375122 513.000000,213.531342 
z"/>
<path fill="#DE3E5B" opacity="1.000000" stroke="none" 
	d="
M1.000000,427.250000 
	C171.358231,427.000000 341.716461,427.000000 512.537354,427.000000 
	C513.000000,427.000000 513.000000,427.500000 513.000000,427.750000 
	C342.641754,428.000000 172.283524,428.000000 1.462638,428.000000 
	C1.000000,428.000000 1.000000,427.500000 1.000000,427.250000 
z"/>
<path fill="#5E79C1" opacity="1.000000" stroke="none" 
	d="
M256.573120,86.089371 
	C257.038940,86.152832 256.983948,86.610260 256.914062,86.829765 
	C171.875229,87.032387 86.906265,87.015503 1.468657,86.999306 
	C1.000000,87.000000 1.000000,86.500000 1.000000,86.250000 
	C86.035767,86.008636 171.071533,86.017273 256.573120,86.089371 
z"/>
<path fill="#E6E8ED" opacity="1.000000" stroke="none" 
	d="
M52.056053,181.695541 
	C52.712788,185.824921 53.610130,189.632935 54.693062,194.228516 
	C51.034851,191.711823 47.852383,189.522415 44.470818,187.196030 
	C41.223377,189.474945 37.988140,191.745300 34.752899,194.015640 
	C38.627243,185.589386 38.143307,178.858109 27.439028,175.377808 
	C27.813086,174.984604 28.187143,174.591385 28.561201,174.198181 
	C30.922722,174.198181 33.313263,173.963898 35.639103,174.251999 
	C39.308308,174.706467 41.150196,173.261765 41.883110,169.686829 
	C42.376289,167.281250 43.406315,164.985718 44.706398,162.243622 
	C45.808079,171.843948 50.051266,177.048096 60.754444,173.601059 
	C60.716362,174.079132 60.678276,174.557205 60.640194,175.035278 
	C57.859016,177.148239 55.077839,179.261215 52.056053,181.695541 
z"/>
<path fill="#E6E8ED" opacity="1.000000" stroke="none" 
	d="
M202.342667,174.198532 
	C212.602005,176.223633 210.341293,166.934662 214.089737,161.944351 
	C214.895691,171.780243 219.125885,177.041092 229.859024,173.619171 
	C229.814682,174.101715 229.770340,174.584259 229.725998,175.066788 
	C227.867599,176.485626 226.126923,178.105896 224.123505,179.276566 
	C221.048325,181.073471 220.007568,183.157516 221.659622,186.594467 
	C222.705261,188.769852 223.120499,191.248260 224.092072,194.509018 
	C220.075333,191.713058 216.843338,189.463364 213.552460,187.172653 
	C210.217926,189.508408 207.016373,191.750992 203.814835,193.993576 
	C208.103546,185.336777 206.727737,178.908905 196.469070,175.225647 
	C196.891113,174.883255 197.313156,174.540848 197.735199,174.198456 
	C199.128159,174.198456 200.521133,174.198456 202.342667,174.198532 
z"/>
<path fill="#E6E8ED" opacity="1.000000" stroke="none" 
	d="
M172.634933,175.781128 
	C164.446915,181.859192 164.453903,181.857391 166.929840,191.483841 
	C167.087585,192.097137 167.009583,192.771072 167.073700,194.078262 
	C163.594254,191.632782 160.549759,189.493011 157.239578,187.166473 
	C154.016052,189.416519 150.778992,191.676010 147.541946,193.935501 
	C151.547577,185.378494 150.491592,178.826035 140.853012,175.564514 
	C141.289246,174.763306 141.409241,174.311646 141.559097,174.301483 
	C145.332062,174.046219 150.056534,175.131561 152.616470,173.255661 
	C155.166382,171.387131 155.544861,166.555313 156.897903,162.963150 
	C157.339554,163.167221 157.753235,163.245163 157.775162,163.384689 
	C159.037979,171.420395 162.555847,176.489182 171.805786,174.269180 
	C172.052811,174.209900 172.529739,175.108582 172.634933,175.781128 
z"/>
<path fill="#E6E8ED" opacity="1.000000" stroke="none" 
	d="
M114.907730,174.200623 
	C115.817932,174.423920 116.359901,174.646225 116.901886,174.868515 
	C116.480164,175.340546 116.150169,176.026825 115.622986,176.252502 
	C107.434265,179.757919 107.179092,185.540009 110.846947,192.513000 
	C110.968712,192.744492 110.777733,193.140457 110.661545,193.961273 
	C107.290344,191.648117 104.101303,189.459961 100.831642,187.216476 
	C97.709702,189.367508 94.738739,191.414520 91.782524,193.451370 
	C91.396141,193.014008 91.007935,192.706894 91.054993,192.609024 
	C94.884720,184.642471 93.541687,178.514389 84.373360,175.530075 
	C85.022041,174.718124 85.247124,174.269226 85.379028,174.295105 
	C94.639320,176.112610 99.735008,172.390381 100.570618,162.207596 
	C102.835678,169.665070 104.678543,176.909409 114.907730,174.200623 
z"/>
<path fill="#E9EAEE" opacity="1.000000" stroke="none" 
	d="
M153.846680,126.105835 
	C154.887772,122.922935 155.807343,120.143593 157.019089,116.481216 
	C158.872147,121.004578 159.405396,125.797913 162.038406,127.730583 
	C164.564178,129.584534 169.267670,128.471634 174.262115,128.726135 
	C170.353561,131.652359 167.279251,133.954025 164.027206,136.388733 
	C165.126007,140.054123 166.200302,143.637802 167.285446,147.257629 
	C166.664154,147.421768 166.244141,147.638229 166.152374,147.541931 
	C159.787491,140.861435 153.547546,141.041412 146.760712,148.621780 
	C151.503738,139.643204 150.507034,133.089417 140.599808,129.649094 
	C145.563065,128.461838 149.644135,127.485619 153.846680,126.105835 
z"/>
<path fill="#EAEBEE" opacity="1.000000" stroke="none" 
	d="
M53.325188,147.597412 
	C50.324299,145.488876 47.624882,143.560318 44.691593,141.464661 
	C41.449955,143.516968 38.254833,145.539825 34.507889,147.912048 
	C35.473873,143.151062 37.576721,139.083557 36.533367,136.125931 
	C35.526726,133.272400 31.273474,131.564163 28.065479,128.480087 
	C38.322010,130.993790 43.185070,126.542015 43.871006,115.420303 
	C46.027412,120.797768 46.537617,125.621544 49.186672,127.644508 
	C51.672863,129.543091 56.420246,128.480652 61.471561,128.804367 
	C58.609844,130.924973 56.693222,132.607849 54.534370,133.879547 
	C51.739548,135.525864 51.243439,137.447067 52.378643,140.466400 
	C53.232944,142.738586 53.241581,145.328751 53.325188,147.597412 
z"/>
<path fill="#E9EAEE" opacity="1.000000" stroke="none" 
	d="
M91.155502,148.142471 
	C91.977455,144.314697 92.799400,140.486923 93.714371,136.225937 
	C91.018806,134.168442 88.023613,131.882233 85.036194,129.601959 
	C85.381386,129.109543 85.590042,128.628189 85.723122,128.648254 
	C94.456810,129.964783 100.033890,127.058533 99.786385,116.265968 
	C100.206566,116.643883 100.626755,117.021797 101.046936,117.399712 
	C102.410278,120.886200 102.848259,125.623329 105.396317,127.508652 
	C107.961929,129.406952 112.624947,128.470566 117.626411,128.878937 
	C115.036987,130.846451 113.319450,132.487808 111.309608,133.601822 
	C108.083290,135.390106 107.351700,137.581726 108.940041,140.925003 
	C109.911995,142.970886 110.346565,145.272079 111.137474,147.830612 
	C110.290108,147.648605 109.817131,147.671494 109.499298,147.460602 
	C100.608696,141.561218 100.611275,141.557327 91.422119,147.974457 
	C91.117317,148.110718 91.155502,148.142471 91.155502,148.142471 
z"/>
<path fill="#EBECEE" opacity="1.000000" stroke="none" 
	d="
M223.074280,134.348389 
	C222.267471,136.262863 221.241211,137.975906 221.371292,139.596069 
	C221.560349,141.950577 222.583359,144.238129 223.529327,147.521088 
	C219.305466,145.293335 216.074753,142.253998 212.887024,142.298447 
	C209.930893,142.339661 207.020691,145.675446 203.326172,147.251678 
	C209.050964,138.377518 205.395782,133.109177 196.809128,128.731232 
	C207.039825,130.670898 212.468811,127.022041 212.773270,116.994888 
	C213.580521,117.455101 213.932953,117.530388 214.011368,117.719360 
	C215.449753,121.186188 215.945435,125.934624 218.525070,127.785683 
	C221.077728,129.617386 225.726608,128.527802 230.617447,128.779343 
	C227.577698,131.013748 225.474670,132.559601 223.074280,134.348389 
z"/>
<path fill="#E9EAEE" opacity="1.000000" stroke="none" 
	d="
M53.913296,239.093994 
	C50.858669,237.151062 47.804043,235.208130 44.439167,233.067871 
	C41.407295,235.103668 38.198078,237.258545 34.988861,239.413422 
	C34.517048,239.382751 34.045238,239.352066 33.573429,239.321381 
	C39.233032,230.682465 37.275661,224.643387 27.701437,221.204117 
	C27.966677,220.808624 28.231916,220.413132 28.497156,220.017639 
	C30.962160,220.017639 33.462334,219.755325 35.883804,220.080002 
	C39.392082,220.550415 41.048561,219.123734 41.777840,215.813324 
	C42.308289,213.405457 43.275005,211.093689 44.447582,207.518250 
	C45.578850,210.921127 46.602112,213.204651 47.071545,215.596863 
	C47.780594,219.210190 49.693073,220.518707 53.299110,220.070389 
	C55.573265,219.787674 57.911163,220.017670 61.723328,220.017670 
	C59.133934,222.009949 57.687195,223.520340 55.925491,224.399765 
	C51.627285,226.545380 50.926262,229.546616 52.972408,233.661377 
	C53.625832,234.975403 53.844296,236.505722 54.177452,238.421844 
	C54.093121,238.906601 53.913296,239.093994 53.913296,239.093994 
z"/>
<path fill="#E8EAEE" opacity="1.000000" stroke="none" 
	d="
M91.031418,239.022354 
	C91.927788,235.510468 92.824158,231.998581 93.868118,227.908432 
	C90.982933,225.714172 87.848778,223.330566 84.710403,220.943741 
	C84.933281,220.597839 85.129906,220.125443 85.240547,220.144791 
	C94.332024,221.734375 99.908195,218.636017 100.947578,208.610138 
	C102.341171,212.245544 102.760178,217.217300 105.400642,219.142975 
	C108.076721,221.094574 112.948318,220.035645 116.864799,220.295746 
	C116.799019,220.612030 116.826271,221.083313 116.667580,221.157654 
	C108.208565,225.120209 106.051445,231.126709 110.492302,239.681076 
	C107.418839,237.518143 104.345367,235.355225 100.969330,232.979370 
	C97.902878,235.025833 94.764259,237.120468 91.304977,239.099716 
	C90.984306,238.984329 91.031418,239.022354 91.031418,239.022354 
z"/>
<path fill="#E9EAEE" opacity="1.000000" stroke="none" 
	d="
M167.057205,238.943176 
	C163.817856,237.094086 160.578491,235.244995 156.911148,233.151596 
	C154.031128,235.154388 150.790863,237.407684 146.861389,240.140274 
	C148.030273,235.659760 150.558044,231.411163 149.551498,228.309509 
	C148.530289,225.162628 144.019318,223.148239 140.605957,219.891403 
	C150.824814,222.607590 155.955383,218.334946 157.571594,208.768906 
	C158.833038,212.440079 160.094467,216.111267 161.405884,219.927887 
	C165.408630,219.927887 169.217239,219.927887 173.646271,219.927887 
	C173.011658,220.838120 172.778763,221.407700 172.358383,221.740295 
	C164.272293,228.138000 164.267761,228.132263 167.043716,238.618347 
	C167.010071,238.985535 167.057205,238.943192 167.057205,238.943176 
z"/>
<path fill="#E9EAEE" opacity="1.000000" stroke="none" 
	d="
M203.711212,238.705688 
	C207.163803,230.892151 206.915421,224.347305 197.314911,221.463516 
	C197.728516,220.642395 197.838074,220.170914 197.992310,220.155807 
	C201.868256,219.776489 206.664703,220.701569 209.359985,218.736832 
	C211.841049,216.928253 212.063583,212.021347 213.796219,208.087708 
	C214.886276,217.746140 219.191971,222.858200 229.834900,219.407990 
	C229.833359,219.886383 229.831833,220.364792 229.830292,220.843201 
	C227.968307,222.242538 226.232285,223.868179 224.216080,224.990417 
	C220.830109,226.875137 220.018448,229.194397 221.768036,232.713913 
	C222.615433,234.418549 222.817444,236.443985 223.684708,239.743500 
	C219.689102,237.079193 216.795151,235.149475 213.552811,232.987473 
	C210.722061,234.945312 207.763245,236.991730 204.358978,238.976151 
	C203.913528,238.914154 203.711212,238.705688 203.711212,238.705688 
z"/>
<path fill="#E9EAEE" opacity="1.000000" stroke="none" 
	d="
M204.014557,239.018494 
	C203.927216,239.338013 203.738846,239.553192 203.550476,239.768372 
	C203.480057,239.506226 203.409637,239.244080 203.525223,238.843811 
	C203.711212,238.705688 203.913528,238.914154 204.014557,239.018494 
z"/>
<path fill="#E9EAEE" opacity="1.000000" stroke="none" 
	d="
M166.985199,239.005157 
	C167.086761,239.081360 167.213226,239.137939 167.339676,239.194519 
	C167.218765,239.219177 167.097839,239.243820 167.017059,239.105835 
	C167.057205,238.943192 167.010071,238.985535 166.985199,239.005157 
z"/>
<path fill="#E8EAEE" opacity="1.000000" stroke="none" 
	d="
M90.960724,238.965347 
	C90.854019,239.004211 90.770905,239.062073 90.859604,239.071136 
	C91.031418,239.022354 90.984306,238.984329 90.960724,238.965347 
z"/>
<path fill="#E9EAEE" opacity="1.000000" stroke="none" 
	d="
M54.183109,238.812958 
	C54.435158,238.953613 54.597218,239.187912 54.759277,239.422195 
	C54.521061,239.458954 54.282848,239.495712 53.978966,239.313232 
	C53.913296,239.093994 54.093121,238.906601 54.183109,238.812958 
z"/>
<path fill="#E9EAEE" opacity="1.000000" stroke="none" 
	d="
M91.102951,148.091064 
	C91.088585,148.071411 90.768013,148.259842 90.768013,148.259842 
	C90.768013,148.259842 90.935104,148.104401 91.045303,148.123444 
	C91.155502,148.142471 91.117317,148.110718 91.102951,148.091064 
z"/>
</svg>