<svg version="1.1" id="Layer_1" xmlns="http://www.w3.org/2000/svg" xmlns:xlink="http://www.w3.org/1999/xlink" x="0px" y="0px"
	 width="100%" viewBox="0 0 512 512" enable-background="new 0 0 512 512" xml:space="preserve">
<path fill="#000000" opacity="1.000000" stroke="none" 
	d="
M276.000000,513.000000 
	C184.022324,513.000000 92.544647,513.000000 1.033484,513.000000 
	C1.033484,342.397308 1.033484,171.794586 1.033484,1.095938 
	C171.561035,1.095938 342.122131,1.095938 512.841614,1.095938 
	C512.841614,171.666550 512.841614,342.333252 512.841614,513.000000 
	C434.127899,513.000000 355.313934,513.000000 276.000000,513.000000 
M81.000000,304.500000 
	C81.338928,319.245544 79.897278,334.300934 82.398109,348.670227 
	C87.180870,376.151184 101.824165,398.212280 124.885429,414.460785 
	C142.959595,427.195526 162.828903,433.240295 185.003128,433.099609 
	C235.000793,432.782349 285.001892,433.026398 335.001495,432.955750 
	C339.581024,432.949280 344.276306,432.859497 348.719696,431.895264 
	C376.009247,425.973419 398.214081,412.174683 414.462128,389.112854 
	C427.196381,371.038300 433.240570,351.169006 433.099731,328.994690 
	C432.782135,278.997009 433.026398,228.995926 432.955750,178.996338 
	C432.949280,174.416794 432.867828,169.718399 431.893890,165.278625 
	C425.915344,138.024612 412.242065,115.747543 389.112366,99.526924 
	C371.011719,86.833138 351.164703,80.757751 328.988037,80.899010 
	C278.657074,81.219627 228.322647,81.006775 177.989639,80.995270 
	C165.286606,80.992363 153.381592,84.588852 141.963943,89.622437 
	C125.475838,96.891380 111.806793,107.992516 101.105919,122.482903 
	C88.621567,139.388336 81.092979,158.220261 81.033699,179.500870 
	C80.918556,220.833618 81.000000,262.166931 81.000000,304.500000 
z"/>
<path fill="#FFFFFF" opacity="1.000000" stroke="none" 
	d="
M81.000000,304.000000 
	C81.000000,262.166931 80.918556,220.833618 81.033699,179.500870 
	C81.092979,158.220261 88.621567,139.388336 101.105919,122.482903 
	C111.806793,107.992516 125.475838,96.891380 141.963943,89.622437 
	C153.381592,84.588852 165.286606,80.992363 177.989639,80.995270 
	C228.322647,81.006775 278.657074,81.219627 328.988037,80.899010 
	C351.164703,80.757751 371.011719,86.833138 389.112366,99.526924 
	C412.242065,115.747543 425.915344,138.024612 431.893890,165.278625 
	C432.867828,169.718399 432.949280,174.416794 432.955750,178.996338 
	C433.026398,228.995926 432.782135,278.997009 433.099731,328.994690 
	C433.240570,351.169006 427.196381,371.038300 414.462128,389.112854 
	C398.214081,412.174683 376.009247,425.973419 348.719696,431.895264 
	C344.276306,432.859497 339.581024,432.949280 335.001495,432.955750 
	C285.001892,433.026398 235.000793,432.782349 185.003128,433.099609 
	C162.828903,433.240295 142.959595,427.195526 124.885429,414.460785 
	C101.824165,398.212280 87.180870,376.151184 82.398109,348.670227 
	C79.897278,334.300934 81.338928,319.245544 81.000000,304.000000 
M143.419083,387.036377 
	C145.828522,388.675995 148.135132,390.497986 150.664917,391.924133 
	C162.555908,398.627655 175.683212,400.807953 188.999557,400.893188 
	C233.160614,401.175995 277.324951,401.086761 321.487122,400.910828 
	C328.483612,400.882965 335.576752,400.208313 342.451477,398.911652 
	C369.790710,393.754944 387.920563,377.392700 396.748871,351.381470 
	C399.666992,342.783752 400.729797,333.205688 400.818207,324.058197 
	C401.228943,281.565857 401.107147,239.066772 400.909546,196.571350 
	C400.870056,188.074570 400.339417,179.465271 398.871826,171.112244 
	C395.020538,149.191849 382.534088,133.139053 363.433075,122.139854 
	C351.606964,115.329880 338.444672,113.186684 325.117950,113.102196 
	C281.956726,112.828537 238.792206,112.897987 195.630096,113.090179 
	C187.466812,113.126518 179.206451,113.736580 171.168823,115.117569 
	C152.637894,118.301453 138.140228,128.064819 126.909386,143.191086 
	C116.545746,157.149338 113.132980,173.135132 113.125168,189.822693 
	C113.102806,237.570450 113.726349,285.318207 113.949982,333.066650 
	C113.995056,342.692108 116.573708,351.552643 120.594276,360.120758 
	C125.673141,370.944153 133.182388,379.782593 143.419083,387.036377 
z"/>
<path fill="#000000" opacity="1.000000" stroke="none" 
	d="
M143.052734,387.004486 
	C133.182388,379.782593 125.673141,370.944153 120.594276,360.120758 
	C116.573708,351.552643 113.995056,342.692108 113.949982,333.066650 
	C113.726349,285.318207 113.102806,237.570450 113.125168,189.822693 
	C113.132980,173.135132 116.545746,157.149338 126.909386,143.191086 
	C138.140228,128.064819 152.637894,118.301453 171.168823,115.117569 
	C179.206451,113.736580 187.466812,113.126518 195.630096,113.090179 
	C238.792206,112.897987 281.956726,112.828537 325.117950,113.102196 
	C338.444672,113.186684 351.606964,115.329880 363.433075,122.139854 
	C382.534088,133.139053 395.020538,149.191849 398.871826,171.112244 
	C400.339417,179.465271 400.870056,188.074570 400.909546,196.571350 
	C401.107147,239.066772 401.228943,281.565857 400.818207,324.058197 
	C400.729797,333.205688 399.666992,342.783752 396.748871,351.381470 
	C387.920563,377.392700 369.790710,393.754944 342.451477,398.911652 
	C335.576752,400.208313 328.483612,400.882965 321.487122,400.910828 
	C277.324951,401.086761 233.160614,401.175995 188.999557,400.893188 
	C175.683212,400.807953 162.555908,398.627655 150.664917,391.924133 
	C148.135132,390.497986 145.828522,388.675995 143.052734,387.004486 
M162.953308,277.623444 
	C162.968002,277.956482 162.932327,278.300903 163.004547,278.620941 
	C169.720612,308.378998 187.616531,329.816681 213.996582,343.762238 
	C233.294037,353.963654 254.760361,355.769775 275.953888,351.722168 
	C298.524475,347.411560 317.248444,335.751831 332.023224,317.642395 
	C351.291626,294.025055 356.755005,266.884644 351.653564,237.881592 
	C347.677460,215.276505 335.734161,196.495514 317.507507,181.869049 
	C303.145782,170.344086 286.976227,162.920502 268.862366,161.214935 
	C247.451401,159.198898 226.749985,162.248093 207.822769,173.926666 
	C187.847961,186.251617 173.876602,203.085114 165.909912,225.165894 
	C159.779190,242.158081 159.974487,259.434540 162.953308,277.623444 
M341.596497,150.938202 
	C336.175995,155.697479 336.018036,162.240891 337.885773,168.376587 
	C340.093414,175.629135 345.729523,177.065247 352.560028,177.104416 
	C358.973480,177.141159 364.154083,172.994202 365.867157,167.099380 
	C367.914917,160.052765 364.927673,152.798874 359.256287,149.751572 
	C353.426727,146.619278 347.736572,147.435608 341.596497,150.938202 
z"/>
<path fill="#FFFFFF" opacity="1.000000" stroke="none" 
	d="
M162.683151,277.277649 
	C159.974487,259.434540 159.779190,242.158081 165.909912,225.165894 
	C173.876602,203.085114 187.847961,186.251617 207.822769,173.926666 
	C226.749985,162.248093 247.451401,159.198898 268.862366,161.214935 
	C286.976227,162.920502 303.145782,170.344086 317.507507,181.869049 
	C335.734161,196.495514 347.677460,215.276505 351.653564,237.881592 
	C356.755005,266.884644 351.291626,294.025055 332.023224,317.642395 
	C317.248444,335.751831 298.524475,347.411560 275.953888,351.722168 
	C254.760361,355.769775 233.294037,353.963654 213.996582,343.762238 
	C187.616531,329.816681 169.720612,308.378998 163.004547,278.620941 
	C162.932327,278.300903 162.968002,277.956482 162.683151,277.277649 
M285.303955,313.972382 
	C297.672211,307.321289 307.831879,298.139038 313.736328,285.401428 
	C323.317322,264.732483 323.178955,244.053589 311.006256,224.171524 
	C295.109528,198.206879 268.661499,188.786148 241.645096,195.518707 
	C209.277756,203.584732 189.923615,231.656998 194.239944,266.299713 
	C196.930756,287.896027 209.503464,303.811707 228.775589,313.877319 
	C238.536819,318.975433 249.154266,320.780487 260.342346,320.147308 
	C268.916534,319.662140 276.913788,317.854767 285.303955,313.972382 
z"/>
<path fill="#FFFFFF" opacity="1.000000" stroke="none" 
	d="
M341.858093,150.645569 
	C347.736572,147.435608 353.426727,146.619278 359.256287,149.751572 
	C364.927673,152.798874 367.914917,160.052765 365.867157,167.099380 
	C364.154083,172.994202 358.973480,177.141159 352.560028,177.104416 
	C345.729523,177.065247 340.093414,175.629135 337.885773,168.376587 
	C336.018036,162.240891 336.175995,155.697479 341.858093,150.645569 
z"/>
<path fill="#000000" opacity="1.000000" stroke="none" 
	d="
M284.916809,314.008240 
	C276.913788,317.854767 268.916534,319.662140 260.342346,320.147308 
	C249.154266,320.780487 238.536819,318.975433 228.775589,313.877319 
	C209.503464,303.811707 196.930756,287.896027 194.239944,266.299713 
	C189.923615,231.656998 209.277756,203.584732 241.645096,195.518707 
	C268.661499,188.786148 295.109528,198.206879 311.006256,224.171524 
	C323.178955,244.053589 323.317322,264.732483 313.736328,285.401428 
	C307.831879,298.139038 297.672211,307.321289 284.916809,314.008240 
z"/>
</svg>