<svg version="1.1" id="Layer_1" xmlns="http://www.w3.org/2000/svg" xmlns:xlink="http://www.w3.org/1999/xlink" x="0px" y="0px"
	 width="100%" viewBox="0 0 512 512" enable-background="new 0 0 512 512" xml:space="preserve">
<path fill="#000000" opacity="1.000000" stroke="none" 
	d="
M1.000001,419.000000 
	C1.000000,418.555664 1.000000,418.111328 1.433268,417.333771 
	C3.597510,417.333679 5.325250,417.933563 7.060007,417.954590 
	C15.387809,418.055573 23.738554,418.374847 32.041389,417.908539 
	C43.302330,417.276093 54.776752,417.131958 65.706360,414.722443 
	C80.516464,411.457428 95.339622,407.323486 109.344765,401.580994 
	C125.207726,395.076691 140.320389,386.627991 153.854660,375.149384 
	C106.521500,370.373962 74.358940,346.186920 57.836506,302.243103 
	C65.661880,302.243103 73.060860,302.502808 80.433136,302.170258 
	C87.846184,301.835907 95.232651,300.912201 102.630760,300.246765 
	C46.484844,285.635315 18.989435,234.985916 21.749895,194.376373 
	C35.822037,202.272919 50.719421,206.672943 65.758873,207.830551 
	C59.627548,201.838562 52.799858,195.849319 46.793159,189.126541 
	C38.905334,180.298401 33.121719,170.034256 28.978329,158.907684 
	C23.039877,142.960709 20.866793,126.680710 22.799047,109.593971 
	C24.087776,98.197868 26.848820,87.383148 31.532608,77.119003 
	C37.161674,64.783348 36.131046,66.849960 43.951355,75.683350 
	C57.225380,90.676949 71.531593,104.554321 87.412399,116.627220 
	C104.454704,129.583099 122.687607,140.759674 142.226395,149.752731 
	C158.580399,157.279938 175.199219,164.018097 192.791870,167.944473 
	C204.911545,170.649353 217.151505,172.859146 229.397568,174.937469 
	C236.747452,176.184845 244.212448,176.753967 251.998581,177.671875 
	C251.998581,175.416611 252.181351,174.243011 251.970322,173.145096 
	C249.850021,162.113525 249.544647,151.112854 250.867126,139.890762 
	C252.400467,126.879379 256.275421,114.650497 262.445618,103.343849 
	C269.719635,90.014412 279.962738,78.918884 291.959412,69.554581 
	C307.221313,57.641525 324.696747,50.656227 343.830200,49.269741 
	C355.044250,48.457123 366.545563,49.644451 377.753082,51.154049 
	C395.849152,53.591503 411.548553,62.041752 424.573730,74.498146 
	C430.298767,79.973152 434.694244,81.387184 442.499695,79.303734 
	C460.803406,74.418053 478.196381,67.781395 494.512756,58.210030 
	C495.747681,57.485611 497.301270,57.304420 499.240326,56.706055 
	C491.640900,80.886200 477.235260,98.850815 457.463806,113.222389 
	C466.286896,111.907867 475.020050,110.439659 483.469482,107.992134 
	C493.441101,105.103683 503.167358,101.368233 513.000000,98.000000 
	C513.000000,98.750000 513.000000,99.500000 512.662842,100.699623 
	C511.290985,102.221336 510.105011,103.184685 509.244263,104.381882 
	C496.818115,121.665054 482.400696,136.974380 465.096039,149.495895 
	C462.425507,151.428284 460.738037,153.852036 460.877747,157.789780 
	C461.462555,174.265976 461.084564,190.757401 457.936707,206.995758 
	C454.996552,222.162674 452.185455,237.408401 448.112488,252.289597 
	C441.649323,275.903748 431.521332,298.062195 419.017761,319.142853 
	C407.998077,337.721649 395.720184,355.490387 380.959686,371.166199 
	C368.439362,384.462860 354.805023,396.852325 340.709534,408.487335 
	C324.015076,422.267670 304.896301,432.501923 284.973999,440.861633 
	C265.434448,449.060730 245.398560,456.031158 224.316406,459.269287 
	C210.837982,461.339539 197.359497,464.093658 183.795059,464.742035 
	C167.773071,465.507843 151.623352,464.872009 135.595047,463.828979 
	C122.980202,463.008057 110.280365,461.493958 97.945045,458.794525 
	C72.481606,453.222260 47.977425,444.590210 24.867887,432.356049 
	C16.812613,428.091644 8.950385,423.462555 1.000001,419.000000 
z"/>
<path fill="#FFFFFF" opacity="1.000000" stroke="none" 
	d="
M513.000000,97.531342 
	C503.167358,101.368233 493.441101,105.103683 483.469482,107.992134 
	C475.020050,110.439659 466.286896,111.907867 457.463806,113.222389 
	C477.235260,98.850815 491.640900,80.886200 499.240326,56.706055 
	C497.301270,57.304420 495.747681,57.485611 494.512756,58.210030 
	C478.196381,67.781395 460.803406,74.418053 442.499695,79.303734 
	C434.694244,81.387184 430.298767,79.973152 424.573730,74.498146 
	C411.548553,62.041752 395.849152,53.591503 377.753082,51.154049 
	C366.545563,49.644451 355.044250,48.457123 343.830200,49.269741 
	C324.696747,50.656227 307.221313,57.641525 291.959412,69.554581 
	C279.962738,78.918884 269.719635,90.014412 262.445618,103.343849 
	C256.275421,114.650497 252.400467,126.879379 250.867126,139.890762 
	C249.544647,151.112854 249.850021,162.113525 251.970322,173.145096 
	C252.181351,174.243011 251.998581,175.416611 251.998581,177.671875 
	C244.212448,176.753967 236.747452,176.184845 229.397568,174.937469 
	C217.151505,172.859146 204.911545,170.649353 192.791870,167.944473 
	C175.199219,164.018097 158.580399,157.279938 142.226395,149.752731 
	C122.687607,140.759674 104.454704,129.583099 87.412399,116.627220 
	C71.531593,104.554321 57.225380,90.676949 43.951355,75.683350 
	C36.131046,66.849960 37.161674,64.783348 31.532608,77.119003 
	C26.848820,87.383148 24.087776,98.197868 22.799047,109.593971 
	C20.866793,126.680710 23.039877,142.960709 28.978329,158.907684 
	C33.121719,170.034256 38.905334,180.298401 46.793159,189.126541 
	C52.799858,195.849319 59.627548,201.838562 65.758873,207.830551 
	C50.719421,206.672943 35.822037,202.272919 21.749895,194.376373 
	C18.989435,234.985916 46.484844,285.635315 102.630760,300.246765 
	C95.232651,300.912201 87.846184,301.835907 80.433136,302.170258 
	C73.060860,302.502808 65.661880,302.243103 57.836506,302.243103 
	C74.358940,346.186920 106.521500,370.373962 153.854660,375.149384 
	C140.320389,386.627991 125.207726,395.076691 109.344765,401.580994 
	C95.339622,407.323486 80.516464,411.457428 65.706360,414.722443 
	C54.776752,417.131958 43.302330,417.276093 32.041389,417.908539 
	C23.738554,418.374847 15.387809,418.055573 7.060007,417.954590 
	C5.325250,417.933563 3.597510,417.333679 1.433268,417.000275 
	C1.000000,278.392517 1.000000,139.785004 1.000000,1.088756 
	C171.666641,1.088756 342.333313,1.088756 513.000000,1.088756 
	C513.000000,33.090096 513.000000,65.076385 513.000000,97.531342 
z"/>
<path fill="#FFFFFF" opacity="1.000000" stroke="none" 
	d="
M1.000001,419.468658 
	C8.950385,423.462555 16.812613,428.091644 24.867887,432.356049 
	C47.977425,444.590210 72.481606,453.222260 97.945045,458.794525 
	C110.280365,461.493958 122.980202,463.008057 135.595047,463.828979 
	C151.623352,464.872009 167.773071,465.507843 183.795059,464.742035 
	C197.359497,464.093658 210.837982,461.339539 224.316406,459.269287 
	C245.398560,456.031158 265.434448,449.060730 284.973999,440.861633 
	C304.896301,432.501923 324.015076,422.267670 340.709534,408.487335 
	C354.805023,396.852325 368.439362,384.462860 380.959686,371.166199 
	C395.720184,355.490387 407.998077,337.721649 419.017761,319.142853 
	C431.521332,298.062195 441.649323,275.903748 448.112488,252.289597 
	C452.185455,237.408401 454.996552,222.162674 457.936707,206.995758 
	C461.084564,190.757401 461.462555,174.265976 460.877747,157.789780 
	C460.738037,153.852036 462.425507,151.428284 465.096039,149.495895 
	C482.400696,136.974380 496.818115,121.665054 509.244263,104.381882 
	C510.105011,103.184685 511.290985,102.221336 512.662842,101.074623 
	C513.000000,238.274277 513.000000,375.548553 513.000000,512.911377 
	C342.333344,512.911377 171.666687,512.911377 1.000007,512.904419 
	C1.000000,481.910797 1.000000,450.924042 1.000001,419.468658 
z"/>
</svg>